<svg xmlns="http://www.w3.org/2000/svg" viewBox="0 0 32 32"><g fill="none" fill-rule="evenodd"><circle cx="16" cy="16" r="16" fill="#9945FF"/><path fill="#14F195" d="M9.43 8.06c.13-.13.31-.2.5-.2h13.3c.34 0 .51.41.27.65l-2.63 2.63c-.13.13-.31.2-.5.2H7.07c-.34 0-.51-.41-.27-.65L9.43 8.06z"/><path fill="#14F195" d="M9.43 23.94c.13.13.31.2.5.2h13.3c.34 0 .51-.41.27-.65l-2.63-2.63c-.13-.13-.31-.2-.5-.2H7.07c-.34 0-.51.41-.27.65l2.63 2.63z"/><path fill="#14F195" d="M20.57 15.86c-.13-.13-.31-.2-.5-.2H6.77c-.34 0-.51.41-.27.65l2.63 2.63c.13.13.31.2.5.2h13.3c.34 0 .51-.41.27-.65l-2.63-2.63z"/></g></svg>
